<?xml version="1.0" encoding="utf-8"?>
<!-- Generator: Adobe Illustrator 28.0.0, SVG Export Plug-In . SVG Version: 6.00 Build 0)  -->
<svg version="1.1" id="Слой_1" xmlns="http://www.w3.org/2000/svg" xmlns:xlink="http://www.w3.org/1999/xlink" x="0px" y="0px"
	 viewBox="0 0 2734.3 946.9" style="enable-background:new 0 0 2734.3 946.9;" xml:space="preserve">
<style type="text/css">
	.st0{fill:#FFFFFF;stroke:#000000;stroke-width:8;stroke-linecap:round;stroke-linejoin:round;stroke-miterlimit:10;}
	.st1{fill:#FFFFFF;stroke:#000000;stroke-width:4;stroke-linecap:round;stroke-linejoin:round;stroke-miterlimit:10;}
	.st2{fill:#7BB6FC;stroke:#FFFFFF;stroke-miterlimit:10;}
	.st3{fill:#AED2FC;stroke:#FFFFFF;stroke-miterlimit:10;}
	.st4{fill:#CFE4F9;stroke:#FFFFFF;stroke-miterlimit:10;}
	.st5{fill:#FFFFFF;}
	.st6{fill:#FFFFFF;stroke:#000000;stroke-width:6;stroke-miterlimit:10;}
	.st7{fill:#FFFFFF;stroke:#000000;stroke-width:3;stroke-miterlimit:10;}
</style>
<g>
	<circle class="st6" cx="473.5" cy="473.5" r="470.9"/>
	<circle class="st7" cx="473.5" cy="473.5" r="350.6"/>
	<path class="st6" d="M552.7,755.2c0,0-36.6-72.8-59.6-102.2C470,623.6,345.3,464.5,345.3,464.5s-32.2-28.7-57.4-36
		c-25.1-7.3-61.2-39.5-82.1-66.2l-83.9-110.3c0,0-8.7-10-2.5-14.9c6.2-4.9,13.3,3.2,15.1,5.4l100.9,124.1c0,0,5,6.5,11.5,1.4
		c4.5-3.5-4-13.7-4-13.7l-101-124.7c0,0-5.7-6.3,0-10.8c5.7-4.5,11.6,4.1,11.6,4.1L254,345.9c0,0,8.2,10.8,13.1,6.9s-5-14.9-5-14.9
		L161.7,213.9c0,0-6.3-7.5-0.3-12.2c4.5-3.5,11,5.4,11,5.4l101.2,123.4c0,0,6.8,8.7,11.8,4.8c4.2-3.3-3-12.5-3-12.5l-97.7-125.7
		c0,0-7.7-9.2-2.2-13.5c4.5-3.5,10.8,0,13.7,3.7c2.9,3.7,106.7,125.9,106.7,125.9s31.9,44.3,38.1,80.3c6,28.6,21,45.7,21,45.7
		l172.4,208.2c0,0,35.1,38.6,74.6,62.9c23.6,13.2,28.8,21.5,28.8,21.5s9.4,11.5,6.9,24.6c20.9,1.6,27,7.7,30.7,12.4s5,19.3,2.2,29.5
		c11.8,14,10.1,39-6,51.6c-16.1,12.6-41.6-1-46.1-6.7c0,0-20.8,3.1-30.9-9.7c-10-12.8-5.2-33.8-5.2-33.8S569.2,801.4,552.7,755.2z"
		/>
	<path class="st6" d="M819.2,700.9c11.8,14,10.1,38.9-6,51.6c-16.1,12.6-41.6-1-46.1-6.7c0,0-20.8,3.1-30.9-9.7s-5.2-33.8-5.2-33.8
		s-20,1.8-36.6-44.4c0,0-36.6-72.8-59.6-102.2c0,0-45.4-50.4-86.9-95.7c-1.6-1.7-3.9-2.5-6.2-2.2l-16.4,2.5c-4.5,0.7-8-4-5.9-8.1
		l5.4-10.6c1.3-2.6,0.9-5.8-1.1-8c-17.7-19.2-32.4-34.8-39.1-41.1c-23.8-22.8-104.5-100.6-156.7-167.2S275,82.3,297,65.1
		c12.8-10.1,42.5,32.8,55.4,49.3c10.3,13.1,138.1,192,209.5,290.3c1.7,2.4,4.7,3.4,7.5,2.6l7.3-2c4.4-1.2,8.4,3.1,6.8,7.4l-4,10.8
		c-0.8,2.2-0.5,4.7,0.9,6.6c9.7,13.3,17.5,23.8,22.5,30.4c38.7,50.6,73,89.4,73,89.4s35.1,38.6,74.6,62.9
		c23.6,13.2,28.8,21.5,28.8,21.5s9.4,11.5,6.9,24.6c20.9,1.6,27,7.7,30.7,12.4C820.7,676.1,822,690.7,819.2,700.9z"/>
	<g>
		<path d="M549.2,573.8V267.5h203.2v28.2h-172v112.2h154.7v28.6H580.4v109.2h172v28.2H549.2z"/>
		<path d="M779.3,573.8l116.1-306.3h42.9l116.1,306.3h-34.2L995,506.2H838.6l-25.1,67.6H779.3z M849,478.1h135.2l-67.6-181.5
			L849,478.1z"/>
		<path d="M1145.4,573.8V295.7h-100.5v-28.2h232.2v28.2h-100.5v278.1H1145.4z"/>
		<path d="M1405.7,577.3c-12.1,0-23.8-1.7-34.9-5.2c-11.1-3.5-20.9-8.5-29.5-15.2c-8.5-6.6-15.2-15-20.1-25.1
			c-4.9-10.1-7.4-21.9-7.4-35.5c0-13.6,2.7-25.6,8.2-36.2c5.5-10.5,13.2-20.1,23.2-28.6c10-8.5,21.4-16.1,34.4-22.7
			c-11-10.4-19.6-21.6-26-33.6c-6.4-12-9.5-24.5-9.5-37.5c0-13.9,3-26.4,8.9-37.5c5.9-11.1,14.7-19.9,26.2-26.4
			c11.5-6.5,26-9.7,43.3-9.7c13.6,0,25.6,2.6,36,7.8c10.4,5.2,18.6,12.7,24.5,22.5c5.9,9.8,8.9,21.7,8.9,35.5
			c0,12.4-3,23.8-9.1,34.2c-6.1,10.4-14.3,19.9-24.7,28.4c-10.4,8.5-22.1,16-35.1,22.3l72.3,85.3c6.1-8.1,10.9-17,14.5-26.9
			c3.6-9.8,6.3-20.1,8-30.8h29.9c-1.7,15.6-5.6,30-11.5,43.3c-5.9,13.3-12.8,25.3-20.6,36l46.4,52H1521l-26-29
			c-13,12.1-26.9,20.6-41.8,25.3C1438.3,574.9,1422.5,577.3,1405.7,577.3z M1410.5,549.1c11.3,0,22.8-1.9,34.7-5.8
			c11.8-3.9,22.4-10.8,31.6-20.6l-80.6-93.1c-9,4.3-17.2,9.7-24.7,16c-7.5,6.4-13.5,13.6-18,21.9c-4.5,8.2-6.7,17.5-6.7,27.9
			c0,11.8,3,21.8,9.1,29.9c6.1,8.1,14,14.1,23.8,18C1389.6,547.2,1399.8,549.1,1410.5,549.1z M1405.7,396.2c7.8-4.6,16.2-10,25.1-16
			c8.9-6.1,16.5-13.1,22.7-21c6.2-7.9,9.3-16.7,9.3-26.2c0-8.4-1.8-15.6-5.4-21.7c-3.6-6.1-8.6-10.8-14.9-14.1
			c-6.4-3.3-13.7-5-22.1-5c-14.4,0-25.6,3.8-33.6,11.5c-7.9,7.7-11.9,18.3-11.9,31.8c0,8.4,1.7,16.2,5,23.6
			c3.3,7.4,7.4,14.1,12.1,20.1S1401.4,391,1405.7,396.2z"/>
		<path d="M1720.7,577.3c-18.8,0-36.5-2.5-53.1-7.6c-16.6-5.1-31-13.3-43.1-24.7c-12.1-11.4-20.7-26.8-25.6-46.1h32.9
			c4.9,13,12.1,23.2,21.7,30.5s20.3,12.5,32.3,15.4c12,2.9,24,4.3,36.2,4.3c12.7,0,24.7-1.8,36-5.4c11.3-3.6,20.5-9.5,27.7-17.8
			c7.2-8.2,10.8-18.7,10.8-31.4c0-10.4-1.9-18.8-5.8-25.1c-3.9-6.3-9.3-11.5-16.2-15.4s-14.9-7.1-23.8-9.7c-9-2.9-18.4-5.3-28.4-7.4
			c-10-2-19.8-4.3-29.5-6.9c-9.7-2.6-18.7-5.8-27.1-9.5c-7.2-2.9-14.2-6.3-21-10.2c-6.8-3.9-12.9-8.7-18.2-14.3
			c-5.3-5.6-9.6-12.4-12.8-20.4c-3.2-7.9-4.8-17.1-4.8-27.5c0-12.4,2-23.3,6.1-32.7c4-9.4,9.5-17.3,16.2-23.8
			c6.8-6.5,14.7-11.8,23.8-15.8c9.1-4,18.8-7,29.2-8.9c10.4-1.9,20.9-2.8,31.6-2.8c17,0,33.1,2.5,48.1,7.6
			c15,5.1,27.6,13.1,37.7,24.3c10.1,11.1,16,26.1,17.8,44.8h-31.2c-2-12.1-6.6-21.7-13.9-28.8c-7.2-7.1-16-12.1-26.2-15.2
			c-10.3-3-21-4.5-32.3-4.5c-8.4,0-17,0.8-25.8,2.4c-8.8,1.6-16.9,4.4-24.3,8.4c-7.4,4-13.2,9.5-17.5,16.2
			c-4.3,6.8-6.5,15.4-6.5,25.8c0,9.2,1.8,17.1,5.4,23.6c3.6,6.5,8.6,11.8,14.9,16c6.3,4.2,13.3,7.6,20.8,10.2
			c13.3,4.9,27.5,8.8,42.7,11.7c15.2,2.9,29.5,6.6,43.1,11.3c8.7,2.9,16.7,6.4,24,10.6c7.4,4.2,13.7,9.2,19.1,14.9
			c5.3,5.8,9.5,12.3,12.3,19.7c2.9,7.4,4.3,15.7,4.3,24.9c0,16.5-2.9,30.4-8.7,41.8c-5.8,11.4-13.7,20.6-23.8,27.5
			c-10.1,6.9-21.7,12-34.7,15.2S1734.8,577.3,1720.7,577.3z"/>
		<path d="M1893.1,573.8V267.5H1998c22.2,0,41.3,3.6,57.2,10.8c15.9,7.2,28.1,18.3,36.6,33.1c8.5,14.9,12.8,33.7,12.8,56.5
			c0,22.5-5,41.4-14.9,56.8c-10,15.3-23.5,26.7-40.7,34.2c-17.2,7.5-36.9,11.3-59.1,11.3h-65.4v103.5H1893.1z M1924.3,442.1h64.1
			c24.8,0,45.1-5.9,60.7-17.8c15.6-11.8,23.4-31.2,23.4-58.1c0-24.3-6.6-42.1-19.7-53.5c-13.1-11.4-32.1-17.1-57-17.1h-71.5V442.1z"
			/>
		<path d="M2165.2,573.8V267.5h31.2v278.1h172v28.2H2165.2z"/>
		<path d="M2413,573.8V267.5h31.2v306.3H2413z"/>
		<path d="M2590.2,573.8V295.7h-100.5v-28.2h232.2v28.2h-100.5v278.1H2590.2z"/>
	</g>
</g>
</svg>
