<?xml version="1.0" encoding="utf-8"?>
<!-- Generator: Adobe Illustrator 28.0.0, SVG Export Plug-In . SVG Version: 6.00 Build 0)  -->
<svg version="1.1"
	 id="svg102" xmlns:rdf="http://www.w3.org/1999/02/22-rdf-syntax-ns#" xmlns:dc="http://purl.org/dc/elements/1.1/" xmlns:inkscape="http://www.inkscape.org/namespaces/inkscape" xmlns:sodipodi="http://sodipodi.sourceforge.net/DTD/sodipodi-0.dtd" xmlns:cc="http://creativecommons.org/ns#" xmlns:svg="http://www.w3.org/2000/svg" inkscape:version="0.92.3 (2405546, 2018-03-11)"
	 xmlns="http://www.w3.org/2000/svg" xmlns:xlink="http://www.w3.org/1999/xlink" x="0px" y="0px" viewBox="0 0 233.3 120"
	 style="enable-background:new 0 0 233.3 120;" xml:space="preserve">
<style type="text/css">
	.st0{fill-rule:evenodd;clip-rule:evenodd;}
	.st1{fill:#5B57A2;}
	.st2{fill:#D90751;}
	.st3{fill:#FAB718;}
	.st4{fill:#ED6F26;}
	.st5{fill:#63B22F;}
	.st6{fill:#1487C9;}
	.st7{fill:#017F36;}
	.st8{fill:#984995;}
	.st9{fill:#FFFFFF;}
	.st10{fill-rule:evenodd;clip-rule:evenodd;fill:#FFFFFF;}
</style>
<sodipodi:namedview  bordercolor="#666666" borderopacity="1" gridtolerance="10" guidetolerance="10" id="namedview104" inkscape:current-layer="svg102" inkscape:cx="119.5" inkscape:cy="60" inkscape:pageopacity="0" inkscape:pageshadow="2" inkscape:window-height="705" inkscape:window-maximized="1" inkscape:window-width="1366" inkscape:window-x="-8" inkscape:window-y="-8" inkscape:zoom="3.5606695" objecttolerance="10" pagecolor="#ffffff" showgrid="false">
	</sodipodi:namedview>
<g>
	<path id="path60_00000155127674037878510600000002036653203554568885_" inkscape:connector-curvature="0" class="st9" d="
		M206.7,34.3v29.3h-10.5V43h-10.1v20.6h-10.5V34.3L206.7,34.3L206.7,34.3z"/>
	<path id="path62_00000177462739731567155060000009536822954836535703_" inkscape:connector-curvature="0" class="st10" d="
		M154.1,64.6c9.4,0,16.3-5.8,16.3-14.5c0-8.4-5.1-13.9-13.7-13.9c-4,0-7.2,1.4-9.7,3.8c0.6-5,4.8-8.6,9.4-8.6c1.1,0,9.1,0,9.1,0
		l4.6-8.7c0,0-10.1,0.2-14.8,0.2c-10.7,0.2-18,9.9-18,21.8C137.3,58.6,144.4,64.6,154.1,64.6z M154.2,44c3.5,0,5.9,2.3,5.9,6.2
		c0,3.5-2.1,6.4-5.9,6.4c-3.6,0-6-2.7-6-6.4C148.2,46.3,150.6,44,154.2,44z"/>
	<path id="path64_00000141426654727707986370000008345375460806555568_" inkscape:connector-curvature="0" class="st9" d="
		M128.8,53.8c0,0-2.5,1.4-6.2,1.7c-4.2,0.1-8-2.6-8-7.3c0-4.7,3.3-7.3,7.9-7.3c2.8,0,6.5,1.9,6.5,1.9s2.7-5,4.1-7.5c-2.6-2-6-3-10-3
		c-10.1,0-17.9,6.6-17.9,15.8c0,9.4,7.3,15.8,17.9,15.6c3-0.1,7-1.1,9.5-2.7L128.8,53.8z"/>
	<path id="path66_00000092449965864237905780000008979870325084234683_" class="st1" d="M0,26.1l14.5,26v15.8L0,93.9L0,26.1z"/>
	<path id="path68_00000031193779331524946020000002730665569792741816_" class="st2" d="M55.8,42.6l13.6-8.3l27.9,0L55.8,59.7
		C55.8,59.7,55.8,42.6,55.8,42.6z"/>
	<path id="path70_00000115496687270435214320000009013449053410367934_" class="st3" d="M55.7,26l0.1,34.4l-14.6-9V0L55.7,26
		L55.7,26z"/>
	<path id="path72_00000003827554490297019580000000644012605780786588_" class="st4" d="M97.3,34.3l-27.9,0L55.7,26L41.2,0
		L97.3,34.3L97.3,34.3z"/>
	<path id="path74_00000161607600007308294070000005549905233733176223_" class="st5" d="M55.8,94V77.3l-14.6-8.8l0,51.5L55.8,94z"/>
	<path id="path76_00000060739450430167673070000001699441561980133761_" class="st6" d="M69.4,85.7L14.5,52.1L0,26.1l97.2,59.6
		L69.4,85.7L69.4,85.7z"/>
	<path id="path78_00000154413241434374333670000014437271886465444234_" class="st7" d="M41.2,120l14.6-26l13.6-8.3l27.8,0L41.2,120
		z"/>
	<path id="path80_00000183945124914602925340000000730859514946378389_" class="st8" d="M0,93.9l41.3-25.3L27.5,60l-12.9,7.9L0,93.9
		z"/>
	<path id="path82_00000006683278264691478570000012297233670863869631_" inkscape:connector-curvature="0" class="st9" d="
		M114.6,83.3c-0.3,0.4-0.7,0.7-1.2,0.9c-0.5,0.2-1.1,0.3-1.6,0.3c-0.6,0-1.1-0.1-1.6-0.3c-0.5-0.2-0.9-0.4-1.3-0.8
		c-0.4-0.3-0.6-0.8-0.8-1.2c-0.2-0.5-0.3-1-0.3-1.6c0-0.5,0.1-1,0.3-1.5c0.2-0.5,0.5-0.9,0.8-1.2c0.3-0.3,0.7-0.6,1.2-0.8
		c0.5-0.2,1-0.3,1.5-0.3c0.6,0,1.2,0.1,1.7,0.2c0.5,0.2,0.9,0.4,1.3,0.8l-0.6,1c-0.3-0.3-0.6-0.5-1-0.6c-0.4-0.1-0.7-0.2-1.1-0.2
		c-0.3,0-0.7,0.1-1,0.2c-0.3,0.1-0.6,0.3-0.8,0.5c-0.2,0.2-0.4,0.5-0.6,0.8c-0.1,0.3-0.2,0.7-0.2,1.1c0,0.4,0.1,0.8,0.2,1.1
		c0.1,0.3,0.3,0.6,0.6,0.8c0.2,0.2,0.5,0.4,0.9,0.5c0.3,0.1,0.7,0.2,1,0.2c0.5,0,0.9-0.1,1.2-0.3c0.3-0.2,0.7-0.4,0.9-0.7
		L114.6,83.3z M116.4,84.4V77h1.3v5.5L122,77h1.3v7.4H122v-5.5l-4.3,5.5L116.4,84.4L116.4,84.4z M132.1,83.3
		c-0.3,0.4-0.8,0.7-1.2,0.9c-0.5,0.2-1.1,0.3-1.6,0.3c-0.6,0-1.1-0.1-1.6-0.3c-0.5-0.2-0.9-0.4-1.3-0.8c-0.4-0.3-0.6-0.8-0.8-1.2
		c-0.2-0.5-0.3-1-0.3-1.6c0-0.5,0.1-1,0.3-1.5c0.2-0.5,0.5-0.9,0.8-1.2c0.3-0.3,0.7-0.6,1.2-0.8c0.5-0.2,1-0.3,1.5-0.3
		c0.6,0,1.2,0.1,1.7,0.2c0.5,0.2,0.9,0.4,1.3,0.8l-0.6,1c-0.3-0.3-0.6-0.5-1-0.6c-0.4-0.1-0.7-0.2-1.1-0.2c-0.7,0-1.3,0.3-1.8,0.7
		c-0.2,0.2-0.4,0.5-0.6,0.8c-0.1,0.3-0.2,0.7-0.2,1.1c0,0.4,0.1,0.8,0.2,1.1c0.1,0.3,0.3,0.6,0.6,0.8c0.2,0.2,0.5,0.4,0.9,0.5
		c0.3,0.1,0.7,0.2,1,0.2c0.5,0,0.9-0.1,1.2-0.3c0.3-0.2,0.7-0.4,0.9-0.7L132.1,83.3z M132.8,77h6.8v1.3h-2.7v6.1h-1.3v-6.1h-2.7
		L132.8,77L132.8,77z"/>
	<path id="path84_00000149372576382715500570000007571542248054542992_" inkscape:connector-curvature="0" class="st10" d="
		M145.9,84.3c0.5-0.2,0.9-0.4,1.3-0.7l-0.4-1c-0.2,0.2-0.6,0.4-1,0.6c-0.4,0.2-0.8,0.2-1.3,0.2c-0.7,0-1.3-0.2-1.8-0.6
		c-0.5-0.4-0.7-0.9-0.8-1.6h5.8c0.1-0.3,0.1-0.5,0.1-0.9c0-0.5-0.1-1-0.3-1.4c-0.2-0.4-0.4-0.8-0.7-1.1c-0.3-0.3-0.7-0.5-1.1-0.7
		c-0.4-0.2-0.9-0.3-1.4-0.2c-0.6,0-1.2,0.1-1.6,0.3c-0.5,0.2-0.9,0.5-1.2,0.8c-0.3,0.4-0.6,0.8-0.7,1.2c-0.2,0.5-0.3,1-0.3,1.5
		c0,0.6,0.1,1.1,0.3,1.6c0.2,0.5,0.5,0.9,0.8,1.2c0.3,0.3,0.8,0.6,1.3,0.8c0.5,0.2,1.1,0.3,1.7,0.3
		C144.9,84.6,145.4,84.5,145.9,84.3L145.9,84.3z M142.5,78.6c0.4-0.4,1-0.6,1.6-0.6c0.6,0,1.2,0.2,1.5,0.5c0.4,0.3,0.6,0.8,0.6,1.4
		h-4.5C141.8,79.5,142.1,79,142.5,78.6L142.5,78.6z"/>
	<path id="path86_00000145018498867810843650000015822091093407918770_" inkscape:connector-curvature="0" class="st9" d="M149.5,77
		h1.2l2.9,3.7l2.7-3.7h1.2v7.4h-1.3V79l-2.6,3.4h-0.1l-2.7-3.4v5.4h-1.3L149.5,77z"/>
	<path id="path88_00000030481884863789167770000018183963594348935588_" inkscape:connector-curvature="0" class="st10" d="
		M161.1,77c-0.4,0.1-0.8,0.3-1.1,0.5l0.4,1.1c0.3-0.2,0.6-0.3,0.9-0.4c0.3-0.1,0.7-0.2,1.2-0.2c0.4,0,0.7,0.1,0.9,0.2
		c0.2,0.1,0.4,0.3,0.5,0.5s0.2,0.4,0.2,0.7c0,0.3,0.1,0.6,0.1,0.9c-0.3-0.2-0.6-0.3-0.9-0.4c-0.3-0.1-0.6-0.1-1-0.1
		c-0.4,0-0.8,0.1-1.1,0.2c-0.4,0.1-0.7,0.2-0.9,0.4c-0.2,0.2-0.5,0.5-0.6,0.7c-0.1,0.3-0.2,0.7-0.2,1c0,0.7,0.2,1.3,0.6,1.7
		c0.4,0.4,1,0.6,1.7,0.6c0.6,0,1.1-0.1,1.5-0.3c0.4-0.2,0.7-0.5,0.9-0.7v1h1.2v-4.5c0-1-0.2-1.7-0.6-2.2c-0.4-0.5-1.2-0.8-2.2-0.8
		C162,76.8,161.5,76.9,161.1,77z M163.3,83c-0.3,0.2-0.7,0.3-1.2,0.3c-0.4,0-0.8-0.1-1-0.3c-0.2-0.2-0.4-0.5-0.4-0.8
		c0-0.2,0-0.4,0.1-0.5c0.1-0.2,0.2-0.3,0.4-0.4c0.2-0.1,0.3-0.2,0.5-0.2c0.2-0.1,0.4-0.1,0.6-0.1c0.7,0,1.2,0.2,1.7,0.5v0.9
		C163.9,82.6,163.6,82.8,163.3,83L163.3,83z M177.1,74.4c0.3-0.1,0.5-0.3,0.8-0.6l-0.7-1c-0.2,0.2-0.4,0.4-0.6,0.5
		c-0.3,0.1-0.5,0.2-0.8,0.2l-0.3,0c-0.2,0-0.5,0.1-0.7,0.1c-0.4,0.1-0.8,0.2-1.2,0.4c-0.6,0.3-1.1,0.6-1.4,1
		c-0.4,0.4-0.6,0.9-0.8,1.5c-0.2,0.6-0.3,1.1-0.4,1.7c-0.1,0.6-0.1,1.2-0.1,1.7c0,0.7,0.1,1.3,0.3,1.9c0.2,0.6,0.4,1.1,0.8,1.4
		c0.3,0.4,0.8,0.7,1.2,0.9s1,0.3,1.6,0.3c0.6,0,1.1-0.1,1.6-0.3c0.5-0.2,0.9-0.5,1.2-0.8c0.3-0.3,0.6-0.8,0.8-1.2
		c0.2-0.5,0.3-0.9,0.3-1.5c0-0.6-0.1-1.1-0.2-1.5c-0.1-0.4-0.4-0.8-0.7-1.2c-0.3-0.3-0.7-0.6-1.1-0.8c-0.5-0.2-1-0.3-1.4-0.3
		c-0.3,0-0.6,0-0.9,0.1c-0.3,0.1-0.6,0.2-0.8,0.4c-0.3,0.1-0.5,0.3-0.7,0.5c-0.2,0.2-0.4,0.4-0.5,0.7h0c0-0.3,0.1-0.7,0.1-1
		c0.1-0.4,0.2-0.7,0.3-1c0.1-0.3,0.3-0.6,0.6-0.9c0.2-0.3,0.5-0.5,0.9-0.6c0.4-0.2,0.8-0.3,1.2-0.4l0.3,0c0.3,0,0.5-0.1,0.8-0.1
		C176.5,74.6,176.8,74.5,177.1,74.4L177.1,74.4z M172.4,81.5c-0.1-0.4-0.2-0.9-0.2-1.3c0.1-0.3,0.2-0.5,0.3-0.7
		c0.1-0.2,0.3-0.4,0.5-0.6c0.5-0.4,1.1-0.6,1.7-0.6c0.8,0,1.4,0.2,1.8,0.7c0.4,0.5,0.6,1.1,0.6,1.8c0,0.4-0.1,0.7-0.2,1
		c-0.2,0.6-0.7,1.1-1.3,1.3c-0.3,0.1-0.6,0.2-1,0.2s-0.7-0.1-1-0.2c-0.3-0.1-0.6-0.4-0.8-0.6C172.7,82.2,172.5,81.9,172.4,81.5
		L172.4,81.5z M188.8,77h-1.3v7.4h1.3V77z M180.5,77h1.3v2.2h1.2c0.6,0,1.1,0.1,1.4,0.2c0.4,0.1,0.7,0.3,0.9,0.6
		c0.2,0.2,0.4,0.5,0.5,0.8c0.1,0.3,0.1,0.6,0.1,1s-0.1,0.7-0.2,1c-0.1,0.3-0.3,0.6-0.5,0.8c-0.2,0.2-0.6,0.4-1,0.6
		c-0.4,0.1-0.9,0.2-1.5,0.2h-2.4L180.5,77L180.5,77z M181.8,80.5v2.7h1c0.7,0,1.1-0.1,1.4-0.3c0.3-0.2,0.4-0.6,0.4-1
		c0-0.4-0.1-0.8-0.4-1c-0.3-0.2-0.7-0.3-1.4-0.3L181.8,80.5L181.8,80.5z"/>
	<path id="path90_00000000217397188032154440000008863046742172522933_" inkscape:connector-curvature="0" class="st9" d="
		M197.6,83.3c-0.3,0.4-0.7,0.7-1.2,0.9c-0.5,0.2-1.1,0.3-1.6,0.3c-0.6,0-1.1-0.1-1.6-0.3c-0.5-0.2-0.9-0.4-1.3-0.8
		c-0.4-0.3-0.6-0.8-0.8-1.2c-0.2-0.5-0.3-1-0.3-1.6c0-0.5,0.1-1,0.3-1.5c0.2-0.5,0.5-0.9,0.8-1.2c0.3-0.3,0.7-0.6,1.2-0.8
		c0.5-0.2,1-0.3,1.5-0.3c0.6,0,1.2,0.1,1.7,0.2c0.5,0.2,0.9,0.4,1.3,0.8l-0.6,1c-0.3-0.3-0.6-0.5-1-0.6c-0.4-0.1-0.7-0.2-1.1-0.2
		c-0.3,0-0.7,0.1-1,0.2c-0.3,0.1-0.6,0.3-0.8,0.5c-0.2,0.2-0.4,0.5-0.6,0.8c-0.1,0.3-0.2,0.7-0.2,1.1c0,0.4,0.1,0.8,0.2,1.1
		c0.1,0.3,0.3,0.6,0.6,0.8c0.2,0.2,0.5,0.4,0.9,0.5c0.3,0.1,0.7,0.2,1,0.2c0.5,0,0.9-0.1,1.2-0.3c0.3-0.2,0.7-0.4,0.9-0.7
		L197.6,83.3z M198.3,77h6.8v1.3h-2.7v6.1H201v-6.1h-2.7L198.3,77L198.3,77z"/>
	<path id="path92_00000065041149837116270970000000250839329448301962_" inkscape:connector-curvature="0" class="st10" d="
		M207.9,77h-1.3v10.7h1.3v-3.6c0.3,0.2,0.6,0.3,1,0.4s0.8,0.1,1.2,0.1c0.6,0,1.1-0.1,1.6-0.3c0.5-0.2,0.9-0.5,1.2-0.8
		c0.3-0.4,0.6-0.8,0.8-1.3c0.2-0.5,0.3-1,0.3-1.6c0-0.6-0.1-1.1-0.2-1.5c-0.2-0.4-0.4-0.8-0.7-1.2c-0.3-0.3-0.7-0.6-1.1-0.8
		c-0.5-0.2-0.9-0.3-1.4-0.3c-0.5,0-1,0.1-1.5,0.3c-0.5,0.2-0.8,0.4-1.1,0.7V77z M208.8,78.4c0.4-0.2,0.8-0.3,1.2-0.3
		c0.4,0,0.7,0.1,1,0.2c0.3,0.1,0.6,0.3,0.8,0.5c0.2,0.2,0.4,0.5,0.5,0.8c0.1,0.3,0.2,0.7,0.2,1c0,0.4-0.1,0.8-0.2,1.1
		c-0.1,0.3-0.3,0.6-0.5,0.8c-0.2,0.2-0.5,0.4-0.8,0.6c-0.3,0.1-0.7,0.2-1.1,0.2c-0.4,0-0.7,0-1-0.1c-0.4-0.1-0.7-0.2-1-0.4v-3.7
		C208.1,78.8,208.4,78.6,208.8,78.4L208.8,78.4z M224.1,77h-1.3v7.4h1.3V77z M215.8,77h1.3v2.2h1.2c0.6,0,1.1,0.1,1.4,0.2
		c0.4,0.1,0.7,0.3,0.9,0.6c0.2,0.2,0.4,0.5,0.5,0.8c0.1,0.3,0.1,0.6,0.1,1s-0.1,0.7-0.2,1c-0.1,0.3-0.3,0.6-0.5,0.8
		c-0.2,0.2-0.6,0.4-1,0.6c-0.4,0.1-0.9,0.2-1.5,0.2h-2.4L215.8,77L215.8,77z M217.1,80.5v2.7h1c0.7,0,1.1-0.1,1.4-0.3
		c0.3-0.2,0.4-0.6,0.4-1c0-0.4-0.1-0.8-0.4-1c-0.3-0.2-0.7-0.3-1.4-0.3L217.1,80.5L217.1,80.5z"/>
	<path id="path94_00000178920565396139943750000011678350805811831743_" inkscape:connector-curvature="0" class="st9" d="
		M230.5,80.6l2.8,3.8h-1.6l-2.2-3l-2.2,3h-1.5l2.8-3.8l-2.7-3.6h1.6l2,2.8l2.1-2.8h1.5L230.5,80.6z M113.6,93.6h-4.1v6.2h-1.3v-7.4
		h6.7v7.4h-1.3L113.6,93.6z M122.5,93.6h-2.6l-0.1,1.2c-0.1,1.1-0.2,1.9-0.4,2.6c-0.2,0.7-0.4,1.1-0.6,1.5c-0.3,0.3-0.5,0.6-0.9,0.7
		c-0.3,0.1-0.7,0.2-1.1,0.2l-0.1-1.3c0.1,0,0.3,0,0.5-0.1c0.2-0.1,0.4-0.3,0.5-0.5c0.2-0.3,0.3-0.7,0.5-1.2c0.1-0.5,0.2-1.2,0.3-2.1
		l0.1-2.3h5.2v7.4h-1.3L122.5,93.6L122.5,93.6z"/>
	<path id="path96_00000159430958099850131000000011150312267930547359_" inkscape:connector-curvature="0" class="st10" d="
		M127.4,92.3c-0.4,0.1-0.8,0.3-1.1,0.5l0.4,1c0.3-0.2,0.6-0.3,0.9-0.4c0.3-0.1,0.7-0.2,1.2-0.2c0.4,0,0.7,0.1,0.9,0.2
		c0.2,0.1,0.4,0.3,0.5,0.5c0.1,0.2,0.2,0.4,0.2,0.7c0,0.3,0.1,0.6,0.1,0.9c-0.3-0.2-0.6-0.3-0.9-0.4c-0.3-0.1-0.6-0.1-1-0.1
		c-0.4,0-0.8,0.1-1.1,0.2c-0.4,0.1-0.7,0.2-0.9,0.4c-0.2,0.2-0.5,0.5-0.6,0.7c-0.1,0.3-0.2,0.7-0.2,1c0,0.7,0.2,1.3,0.6,1.7
		c0.4,0.4,1,0.6,1.7,0.6c0.6,0,1.1-0.1,1.5-0.3c0.4-0.2,0.7-0.5,0.9-0.7v1h1.2v-4.5c0-1-0.2-1.7-0.6-2.2c-0.4-0.5-1.2-0.8-2.2-0.8
		C128.3,92.2,127.9,92.2,127.4,92.3L127.4,92.3z M129.7,98.3c-0.3,0.2-0.7,0.3-1.2,0.3c-0.4,0-0.8-0.1-1-0.3
		c-0.2-0.2-0.4-0.5-0.4-0.8c0-0.2,0-0.4,0.1-0.5c0.1-0.2,0.2-0.3,0.4-0.4c0.1-0.1,0.3-0.2,0.5-0.2c0.2,0,0.4-0.1,0.6-0.1
		c0.7,0,1.2,0.2,1.7,0.5v0.9C130.2,97.9,129.9,98.2,129.7,98.3z"/>
	<path id="path98_00000128453163444837914420000000843367696855914640_" inkscape:connector-curvature="0" class="st9" d="
		M132.9,92.3h6.8v1.3H137v6.1h-1.3v-6.1H133L132.9,92.3L132.9,92.3z"/>
	<path id="path100_00000130619859295797669920000016930256751527264388_" inkscape:connector-curvature="0" class="st10" d="
		M146,99.7c0.5-0.2,0.9-0.4,1.3-0.7l-0.4-1c-0.2,0.2-0.6,0.4-1,0.6c-0.4,0.2-0.8,0.2-1.3,0.2c-0.7,0-1.3-0.2-1.8-0.6
		s-0.7-0.9-0.8-1.6h5.8c0.1-0.3,0.1-0.5,0.1-0.9c0-0.5-0.1-1-0.3-1.4c-0.2-0.4-0.4-0.8-0.7-1.1c-0.3-0.3-0.7-0.5-1.1-0.7
		c-0.4-0.2-0.9-0.3-1.4-0.2c-0.6,0-1.2,0.1-1.6,0.3c-0.5,0.2-0.9,0.5-1.2,0.8c-0.3,0.4-0.6,0.8-0.7,1.2c-0.2,0.5-0.3,1-0.3,1.5
		c0,0.6,0.1,1.1,0.3,1.6c0.2,0.5,0.5,0.9,0.8,1.2c0.3,0.3,0.8,0.6,1.3,0.8c0.5,0.2,1.1,0.3,1.7,0.3C145,99.9,145.5,99.8,146,99.7
		L146,99.7z M142.6,93.9c0.4-0.4,1-0.6,1.6-0.6c0.7,0,1.2,0.2,1.5,0.5c0.4,0.3,0.6,0.8,0.6,1.4h-4.5
		C141.9,94.8,142.2,94.3,142.6,93.9L142.6,93.9z M148.5,92.3h1.7l2.6,3.6l-2.7,3.8h-1.6l2.9-3.8L148.5,92.3L148.5,92.3z M153,92.3
		h1.3v7.4H153V92.3z M159.1,99.7l-2.9-3.8l2.7-3.6h-1.6l-2.6,3.6l2.8,3.8H159.1z M165.2,99.7c0.5-0.2,0.9-0.4,1.3-0.7l-0.4-1
		c-0.2,0.2-0.6,0.4-1,0.6c-0.4,0.2-0.8,0.2-1.3,0.2c-0.7,0-1.3-0.2-1.8-0.6c-0.5-0.4-0.7-0.9-0.8-1.6h5.8c0.1-0.3,0.1-0.5,0.1-0.9
		c0-0.5-0.1-1-0.3-1.4c-0.2-0.4-0.4-0.8-0.7-1.1c-0.3-0.3-0.7-0.5-1.1-0.7c-0.4-0.2-0.9-0.3-1.4-0.2c-0.6,0-1.2,0.1-1.6,0.3
		c-0.5,0.2-0.9,0.5-1.2,0.8c-0.3,0.4-0.6,0.8-0.7,1.2c-0.2,0.5-0.3,1-0.3,1.5c0,0.6,0.1,1.1,0.3,1.6c0.2,0.5,0.5,0.9,0.8,1.2
		c0.3,0.3,0.8,0.6,1.3,0.8c0.5,0.2,1.1,0.3,1.7,0.3C164.2,99.9,164.7,99.8,165.2,99.7z M161.8,93.9c0.4-0.4,1-0.6,1.6-0.6
		c0.6,0,1.2,0.2,1.5,0.5c0.4,0.3,0.6,0.8,0.6,1.4h-4.5C161.2,94.8,161.4,94.3,161.8,93.9L161.8,93.9z M172.4,89.8
		c-0.8,0-1.2-0.4-1.3-1.3h-1.3c0,0.3,0.1,0.6,0.2,0.9c0.1,0.3,0.3,0.5,0.5,0.7c0.2,0.2,0.5,0.4,0.8,0.5c0.3,0.1,0.7,0.2,1.1,0.2
		c0.4,0,0.7-0.1,1-0.2c0.3-0.1,0.6-0.3,0.8-0.5c0.2-0.2,0.4-0.4,0.5-0.7c0.1-0.3,0.2-0.6,0.2-0.9h-1.2
		C173.6,89.4,173.2,89.8,172.4,89.8z M168.8,92.3v7.4h1.3l4.3-5.5v5.5h1.3v-7.4h-1.3l-4.3,5.5v-5.5H168.8z"/>
</g>
</svg>
